# AST/ASF file generated using VICON BodyLanguage
# -----------------------------------------------
:version 1.10
:name VICON
:units
  mass 1.0
  length 0.45
  angle deg
:documentation
   .ast/.asf automatically generated from VICON data using
   VICON BodyBuilder and BodyLanguage model FoxedUp or BRILLIANT.MOD
:root
   order TX TY TZ RX RY RZ
   axis XYZ
   position 0 0 0  
   orientation 0 0 0 
:bonedata
  begin
     id 1 
     name lhipjoint
     direction 0.690799 -0.707083 0.151096 
     length 2.54797 
     axis 0 0 0  XYZ
  end
  begin
     id 2 
     name lfemur
     direction 0.34202 -0.939693 0  
     length 7.21646  
     axis 0 0 20  XYZ
    dof rx ry rz
    limits (-160.0 20.0)
           (-70.0 70.0)
           (-60.0 70.0)
  end
  begin
     id 3 
     name ltibia
     direction 0.34202 -0.939693 0   
     length 8.16759   
     axis 0 0 20   XYZ
    dof rx
    limits (-10.0 170.0)
  end
  begin
     id 4 
     name lfoot
     direction 0.0487203 -0.133858 0.989802   
     length 1.93375   
     axis -90 7.62852e-016 20   XYZ
    dof rx rz
    limits (-45.0 90.0)
           (-70.0 20.0)
  end
  begin
     id 5 
     name ltoes
     direction 1.53453e-011 -4.21783e-011 1   
     length 0.979747   
     axis -90 7.62852e-016 20   XYZ
    dof rx
    limits (-90.0 20.0)
  end
  begin
     id 6 
     name rhipjoint
     direction -0.694693 -0.703425 0.150315   
     length 2.56122  
     axis 0 0 0  XYZ 
  end
  begin
     id 7 
     name rfemur
     direction -0.34202 -0.939693 0   
     length 7.36786   
     axis 0 0 -20   XYZ
    dof rx ry rz
    limits (-160.0 20.0)
           (-70.0 70.0)
           (-70.0 60.0)
  end
  begin
     id 8 
     name rtibia
     direction -0.34202 -0.939693 0   
     length 8.07288   
     axis 0 0 -20   XYZ
    dof rx
    limits (-10.0 170.0)
 end
 begin
     id 9 
     name rfoot
     direction -0.0428397 -0.117701 0.992125   
     length 1.88295  
     axis -90 -7.62852e-016 -20   XYZ
    dof rx rz
    limits (-45.0 90.0)
           (-20.0 70.0)
  end
  begin
     id 10 
     name rtoes
     direction -1.53456e-011 -4.2187e-011 1   
     length 0.955578   
     axis -90 -7.62852e-016 -20   XYZ
    dof rx
    limits (-90.0 20.0)
  end
  begin
     id 11 
     name lowerback
     direction 0.0288145 0.999398 -0.0193241   
     length 1.92149   
     axis 0 0 0   XYZ
    dof rx ry rz
    limits (-20.0 45.0)
           (-30.0 30.0)
           (-30.0 30.0)
  end
  begin
     id 12 
     name upperback
     direction 0.0233784 0.998099 0.0570278   
     length 1.90435   
     axis 0 0 0   XYZ
    dof rx ry rz
    limits (-20.0 45.0)
           (-30.0 30.0)
           (-30.0 30.0)
  end
  begin
     id 13 
     name thorax
     direction 0.0096694 0.997833 0.0650817   
     length 1.9111   
     axis 0 0 0   XYZ
    dof rx ry rz
    limits (-20.0 45.0)
           (-30.0 30.0)
           (-30.0 30.0)
  end
  begin
     id 14 
     name lowerneck
     direction 0.00516803 0.999916 0.0118722   
     length 1.74664   
     axis 0 0 0   XYZ
    dof rx ry rz
    limits (-20.0 45.0)
           (-30.0 30.0)
           (-30.0 30.0)
  end
  begin
     id 15 
     name upperneck
     direction -0.0510851 0.996117 -0.071696   
     length 1.68498   
     axis 0 0 0   XYZ
    dof rx ry rz
    limits (-20.0 45.0)
           (-30.0 30.0)
           (-30.0 30.0)
  end
  begin
     id 16
     name head
     direction -0.019188 0.999436 -0.0275702  
     length 1.83483  
     axis 0 0 0   XYZ
    dof rx ry rz
    limits (-20.0 45.0)
           (-30.0 30.0)
           (-30.0 30.0)
  end
  begin
     id 17 
     name lclavicle
     direction 0.967006 0.248456 -0.0562957  
     length 3.39395  
     axis 0 0 0   XYZ
    dof ry rz
    limits (-20.0 10.0)
           (0.0 20.0)
  end
  begin
     id 18 
     name lhumerus
     direction 1 -4.48962e-011 -5.62711e-019   
     length 5.24318   
     axis 180 -30 -90   XYZ
    dof rx ry rz
    limits (-60.0 90.0)
           (-90.0 90.0)
           (-90.0 90.0)
  end
  begin
     id 19
     name lradius
     direction 1 -4.48966e-011 7.90625e-027   
     length 2.98999   
     axis 180 -30 -90   XYZ
    dof rx
    limits (-10.0 170.0)
  end
  begin
     id 20
     name lwrist
     direction 1 -4.48959e-011 1.61068e-026   
     length 1.49499   
     axis -9.31229e-015 90 90   XYZ
    dof ry
    limits (-180.0 0.0)
 end
  begin
     id 21 
     name lhand
     direction 1 -4.49017e-011 3.22136e-026   
     length 0.726745   
     axis -2.0555e-014 90 90   XYZ
    dof rx rz
    limits (-90.0 90.0)
           (-45.0 45.0)
  end
  begin
     id 22 
     name lfingers
     direction 1 -4.4898e-011 6.44272e-026   
     length 0.58592   
     axis -4.11101e-014 90 90   XYZ
    dof rx
    limits (0.0 90.0)
  end
  begin
     id 23
     name lthumb
     direction 0.707107 -6.34922e-011 0.707107   
     length 0.841268   
     axis -90 45 2.85299e-015   XYZ
    dof rx rz
    limits (-45.0 45.0)
           (-45.0 45.0)
  end
  begin
     id 24 
     name rclavicle
     direction -0.972232 0.230238 0.0419005   
     length 3.40416  
     axis 0 0 0   XYZ 
    dof ry rz
    limits (-10.0 20.0)
           (-20.0 0.0)
  end
  begin
     id 25 
     name rhumerus
     direction -1 -4.48976e-011 2.48487e-027  
     length 5.37045   
     axis 180 30 90   XYZ
    dof rx ry rz
    limits (-90.0 60.0)
           (-90.0 90.0)
           (-90.0 90.0)
  end
  begin
     id 26 
     name rradius
     direction -1 -4.48942e-011 7.87951e-027   
     length 2.92792   
     axis 180 30 90   XYZ
    dof rx
    limits (-10.0 170.0)
  end
  begin
     id 27 
     name rwrist
     direction -1 -4.48969e-011 1.61068e-026   
     length 1.46396   
     axis -9.31229e-015 -90 -90   XYZ
    dof ry
    limits (-180.0 0.0)
  end
  begin
     id 28
     name rhand
     direction -1 -4.49043e-011 3.22136e-026   
     length 0.784497   
     axis -2.0555e-014 -90 -90   XYZ
    dof rx rz
    limits (-90.0 90.0)
           (-45.0 45.0)
  end
  begin
     id 29
     name rfingers
     direction -1 -4.48823e-011 6.44272e-026   
     length 0.632482   
     axis -4.11101e-014 -90 -90   XYZ
    dof rx
    limits (0.0 90.0)
  end
  begin
     id 30
     name rthumb
     direction -0.707107 -6.34923e-011 0.707107   
     length 0.908121   
     axis -90 -45 -2.85299e-015   XYZ
    dof rx rz
    limits (-45.0 45.0)
           (-45.0 45.0)
  end
:hierarchy
  begin
    root lhipjoint rhipjoint lowerback
    lhipjoint lfemur
    lfemur ltibia
    ltibia lfoot
    lfoot ltoes
    rhipjoint rfemur
    rfemur rtibia
    rtibia rfoot
    rfoot rtoes
    lowerback upperback
    upperback thorax
    thorax lowerneck lclavicle rclavicle
    lowerneck upperneck
    upperneck head
    lclavicle lhumerus
    lhumerus lradius
    lradius lwrist
    lwrist lhand lthumb
    lhand lfingers
    rclavicle rhumerus
    rhumerus rradius
    rradius rwrist
    rwrist rhand rthumb
    rhand rfingers
  end

#!OML:ASF E:\Style6\Style6.ASF
:FULLY-SPECIFIED
:DEGREES
851
root 0.364075 13.9786 -2.35365 24.3237 14.7641 11.2246
lowerback 26.0243 1.17872 11.522
upperback 2.72866 6.02502 9.2051
thorax -11.3687 2.51119 1.83207
lowerneck -9.78127 -5.19939 1.50282
upperneck -5.98144 -7.76215 -18.8799
head -0.90244 -3.97952 -6.13012
rclavicle 1.27222e-014 -4.13472e-014
rhumerus 32.3434 -47.8718 -80.9243
rradius 22.7849
rwrist 24.9217
rhand -11.3168 5.68424
rfingers 7.12502
rthumb 14.7153 -23.7735
lclavicle 1.27222e-014 -4.13472e-014
lhumerus -34.1213 -3.02123 52.6249
lradius 121.376
lwrist 1.7035
lhand -11.1125 15.7847
lfingers 7.12502
lthumb 14.9121 45.228
rfemur -88.6593 -38.1272 26.9922
rtibia 88.7283
rfoot -19.0556 13.5271
rtoes 6.46643
lfemur -78.6932 -2.7733 -32.8197
ltibia 80.4664
lfoot -16.7262 -12.5722
ltoes 2.95645
852
root 0.371184 13.9476 -2.3435 24.2962 14.884 11.1985
lowerback 26.0341 1.1929 11.5359
upperback 2.55624 6.07674 9.1919
thorax -11.5728 2.52178 1.79468
lowerneck -9.66782 -5.23858 1.51969
upperneck -6.07766 -7.8381 -18.8774
head -0.958217 -4.00593 -6.12662
rclavicle 3.18055e-014 6.36111e-015
rhumerus 32.562 -48.7793 -81.6961
rradius 22.6702
rwrist 25.2218
rhand -11.7895 6.02167
rfingers 7.12502
rthumb 14.2598 -23.4688
lclavicle 3.18055e-014 6.36111e-015
lhumerus -34.4288 -3.07555 52.6402
lradius 121.558
lwrist 1.75829
lhand -11.0097 15.7823
lfingers 7.12502
lthumb 15.0112 45.2182
rfemur -88.7639 -38.2407 26.98
rtibia 89.059
rfoot -19.1582 13.6222
rtoes 6.97075
lfemur -78.8609 -3.07367 -32.6315
ltibia 80.838
lfoot -16.9047 -12.3274
ltoes 2.62026
853
root 0.377477 13.9231 -2.33478 24.256 15.0323 11.2929
lowerback 26.0791 1.20287 11.5067
upperback 2.39298 6.11268 9.15397
thorax -11.7871 2.52615 1.75666
lowerneck -9.55396 -5.32466 1.44834
upperneck -6.15036 -7.96256 -18.7897
head -1.00712 -4.05632 -6.08155
rclavicle -1.59028e-014 -2.22639e-014
rhumerus 31.8602 -48.9164 -81.3289
rradius 22.7749
rwrist 24.4243
rhand -11.9719 5.869
rfingers 7.12502
rthumb 14.0841 -23.6337
lclavicle -1.59028e-014 -2.22639e-014
lhumerus -34.6339 -3.19677 52.7375
lradius 121.691
lwrist 1.79665
lhand -11.1259 15.7884
lfingers 7.12502
lthumb 14.8992 45.2326
rfemur -88.8064 -38.4544 26.8361
rtibia 89.3836
rfoot -19.3183 13.6112
rtoes 6.61186
lfemur -78.8996 -3.43979 -32.5489
ltibia 81.1593
lfoot -17.0878 -12.0523
ltoes 2.19499
854
root 0.378248 13.8928 -2.32737 24.2315 15.2947 11.3202
lowerback 25.8745 1.18143 11.5783
upperback 2.38263 6.07034 9.14702
thorax -11.6819 2.50929 1.72891
lowerneck -9.62528 -5.41677 1.43041
upperneck -6.28081 -8.10274 -18.7108
head -1.04599 -4.12194 -6.0552
rclavicle -3.81667e-014 -3.18055e-014
rhumerus 32.0434 -49.4638 -81.8236
rradius 22.7907
rwrist 24.2327
rhand -11.8431 5.96707
rfingers 7.12502
rthumb 14.2082 -23.527
lclavicle -3.81667e-014 -3.18055e-014
lhumerus -34.5594 -3.14075 52.8033
lradius 121.72
lwrist 1.77158
lhand -11.4281 15.6467
lfingers 7.12502
lthumb 14.6081 45.1122
rfemur -88.9126 -38.682 26.8384
rtibia 89.7152
rfoot -19.5484 13.5064
rtoes 5.92832
lfemur -79.0305 -3.84976 -32.3402
ltibia 81.4835
lfoot -17.1207 -11.9656
ltoes 2.49957
855
root 0.375151 13.8688 -2.3208 24.057 15.4536 11.1345
lowerback 25.7907 1.18967 11.6657
upperback 2.4332 6.09021 9.19986
thorax -11.5743 2.52237 1.73611
lowerneck -9.7189 -5.47352 1.42528
upperneck -6.39258 -8.19241 -18.6659
head -1.07159 -4.16473 -6.04288
rclavicle 5.40694e-014 -1.90833e-014
rhumerus 32.5123 -50.0705 -82.644
rradius 22.7115
rwrist 24.2351
rhand -11.8904 6.26701
rfingers 7.12502
rthumb 14.1626 -23.2302
lclavicle 5.40694e-014 -1.90833e-014
lhumerus -34.5006 -2.9851 52.8748
lradius 121.725
lwrist 1.66468
lhand -11.5921 15.2772
lfingers 7.12502
lthumb 14.4501 44.7541
rfemur -88.7984 -38.6792 26.9113
rtibia 89.9733
rfoot -19.7434 13.3598
rtoes 5.73891
lfemur -79.101 -4.00327 -32.0152
ltibia 81.7918
lfoot -17.3366 -11.7225
ltoes 1.44706
856
root 0.370305 13.858 -2.3166 23.8406 15.5428 10.91
lowerback 25.9305 1.22936 11.7011
upperback 2.39307 6.19205 9.25183
thorax -11.6972 2.56198 1.73924
lowerneck -9.75437 -5.51019 1.48118
upperneck -6.44041 -8.2559 -18.6974
head -1.08966 -4.19645 -6.06312
rclavicle -6.36111e-015 -9.54166e-015
rhumerus 32.4082 -50.3862 -82.9235
rradius 22.7537
rwrist 23.9
rhand -11.8845 6.40319
rfingers 7.12502
rthumb 14.1683 -23.0937
lclavicle -6.36111e-015 -9.54166e-015
lhumerus -34.5968 -2.96148 52.9996
lradius 121.756
lwrist 1.53928
lhand -11.6462 15.1273
lfingers 7.12502
lthumb 14.3979 44.6079
rfemur -88.5377 -38.5851 26.9534
rtibia 90.1483
rfoot -19.9739 13.1505
rtoes 5.14195
lfemur -79.0714 -4.05043 -31.698
ltibia 82.0334
lfoot -17.6807 -11.3806
ltoes -0.383563
857
root 0.368426 13.8422 -2.31062 23.7126 15.6404 10.783
lowerback 26.0108 1.27793 11.6645
upperback 2.32519 6.28107 9.31496
thorax -11.8307 2.59957 1.8009
lowerneck -9.76801 -5.53555 1.47523
upperneck -6.51622 -8.30332 -18.7444
head -1.11605 -4.21567 -6.07685
rclavicle 6.67916e-014 1.04958e-013
rhumerus 32.2112 -50.5803 -82.9946
rradius 22.8091
rwrist 23.4753
rhand -11.7911 6.33702
rfingers 7.12502
rthumb 14.2583 -23.1535
lclavicle 6.67916e-014 1.04958e-013
lhumerus -34.7797 -2.89166 53.151
lradius 121.847
lwrist 1.47949
lhand -11.5644 15.2736
lfingers 7.12502
lthumb 14.4767 44.7486
rfemur -88.4219 -38.5402 26.963
rtibia 90.3534
rfoot -20.3118 12.7969
rtoes 3.4802
lfemur -79.0964 -4.20479 -31.4442
ltibia 82.2813
lfoot -17.803 -11.2976
ltoes 0.440015
